<svg width="44" height="44" viewBox="0 0 44 44" fill="none" xmlns="http://www.w3.org/2000/svg">
<circle cx="22" cy="22" r="22" fill="#0EBE7E"/>
<path d="M22 14C17.5786 14 14 17.578 14 22C14 23.4032 14.366 24.7737 15.0609 25.9824L14.0302 29.1833C13.9583 29.4065 14.0173 29.6511 14.1831 29.8169C14.3473 29.9811 14.5913 30.0424 14.8167 29.9698L18.0176 28.9391C19.2263 29.634 20.5968 30 22 30C26.4214 30 30 26.422 30 22C30 17.5786 26.422 14 22 14ZM22 28.75C20.7325 28.75 19.4971 28.3964 18.4271 27.7273C18.2732 27.6311 18.082 27.6051 17.9042 27.6624L15.5935 28.4065L16.3376 26.0958C16.394 25.9205 16.3702 25.7291 16.2726 25.5729C15.6036 24.5029 15.25 23.2675 15.25 22C15.25 18.2781 18.2781 15.25 22 15.25C25.7219 15.25 28.75 18.2781 28.75 22C28.75 25.7219 25.7219 28.75 22 28.75ZM22.7812 22C22.7812 22.4314 22.4315 22.7812 22 22.7812C21.5685 22.7812 21.2188 22.4314 21.2188 22C21.2188 21.5685 21.5685 21.2188 22 21.2188C22.4315 21.2188 22.7812 21.5685 22.7812 22ZM25.9062 22C25.9062 22.4314 25.5565 22.7812 25.125 22.7812C24.6935 22.7812 24.3438 22.4314 24.3438 22C24.3438 21.5685 24.6935 21.2188 25.125 21.2188C25.5565 21.2188 25.9062 21.5685 25.9062 22ZM19.6562 22C19.6562 22.4314 19.3065 22.7812 18.875 22.7812C18.4436 22.7812 18.0938 22.4314 18.0938 22C18.0938 21.5685 18.4436 21.2188 18.875 21.2188C19.3065 21.2188 19.6562 21.5685 19.6562 22Z" fill="white"/>
</svg>
